<?xml version="1.0" encoding="UTF-8"?>
<svg width="82px" height="94px" viewBox="0 0 82 94" version="1.1" xmlns="http://www.w3.org/2000/svg" xmlns:xlink="http://www.w3.org/1999/xlink">
    <!-- Generator: Sketch 59.1 (86144) - https://sketch.com -->
    <title>trash</title>
    <desc>Created with Sketch.</desc>
    <g id="Page-1" stroke="none" stroke-width="1" fill="none" fill-rule="evenodd">
        <g id="trash" fill="#000000" fill-rule="nonzero">
            <path d="M81.69,9.22 L81.69,15 C81.69,16.6071486 80.3871486,17.91 78.78,17.91 L3.22,17.91 C1.61285138,17.91 0.31,16.6071486 0.31,15 L0.31,9.22 C0.31,7.61285138 1.61285138,6.31 3.22,6.31 L25,6.31 L26.71,2.91 C27.5026492,1.49270838 28.9682052,0.582401645 30.59,0.5 L51.38,0.5 C53.0055643,0.586830047 54.4751877,1.49498194 55.28,2.91 L57,6.31 L78.8,6.31 C80.3993327,6.32099224 81.69,7.62062958 81.69,9.22 Z M6.13,23.75 L75.88,23.75 L75.88,84.75 C75.88,89.565923 71.975923,93.47 67.16,93.47 L14.84,93.47 C10.024077,93.47 6.12,89.565923 6.12,84.75 L6.13,23.75 Z M20.66,79 C20.7502914,80.5382704 22.024082,81.7394861 23.565,81.7394861 C25.105918,81.7394861 26.3797086,80.5382704 26.47,79 L26.47,38.28 C26.3797086,36.7417296 25.105918,35.5405139 23.565,35.5405139 C22.024082,35.5405139 20.7502914,36.7417296 20.66,38.28 L20.66,79 Z M38.1,79 C38.1902914,80.5382704 39.464082,81.7394861 41.005,81.7394861 C42.545918,81.7394861 43.8197086,80.5382704 43.91,79 L43.91,38.28 C43.8197086,36.7417296 42.545918,35.5405139 41.005,35.5405139 C39.464082,35.5405139 38.1902914,36.7417296 38.1,38.28 L38.1,79 Z M55.54,79 C55.6302914,80.5382704 56.904082,81.7394861 58.445,81.7394861 C59.985918,81.7394861 61.2597086,80.5382704 61.35,79 L61.35,38.28 C61.2597086,36.7417296 59.985918,35.5405139 58.445,35.5405139 C56.904082,35.5405139 55.6302914,36.7417296 55.54,38.28 L55.54,79 Z" id="Shape"></path>
        </g>
    </g>
</svg>